<?xml version="1.0" encoding="utf-8"?>
<!-- Generator: Adobe Illustrator 26.3.0, SVG Export Plug-In . SVG Version: 6.00 Build 0)  -->
<svg version="1.1" id="Patinho_vetor" xmlns="http://www.w3.org/2000/svg" xmlns:xlink="http://www.w3.org/1999/xlink" x="0px"
	 y="0px" viewBox="0 0 841.89 595.28" style="enable-background:new 0 0 841.89 595.28;" xml:space="preserve">
<style type="text/css">
	.st0{fill:#FFFFFF;stroke:#FFFFFF;stroke-miterlimit:10;}
</style>
<g>
	<path class="st0" d="M522.39,308.54c-21.12,9-31.68,10.44-31.68,10.44c-18.14,0.93-24.96,3.16-27.1,4.11
		c3.42-2.09,15.7-10.83,15.7-10.83c76.8-51.84,28.56-142.2-35.52-152.52s-88.86,32.1-88.86,32.1c-2.8-1.29-4.5-1.57-5.42-1.59
		c-0.83-0.02-1.64-0.24-2.35-0.68c-2.88-1.79-9.04-6.15-11.1-7.61c-0.46-0.33-0.96-0.61-1.48-0.81c-8.27-3.21-13.56-1.47-16.17,0.04
		c-1.17,0.68-2.12,1.69-2.81,2.85c-6.81,11.42-2.89,20.71-1.22,25.03c1.74,4.5,9.96,10.56,9.96,10.56c7.8,5.88,3.48,6.6,3.48,6.6
		c-10.38,4.26-10.38,11.4-10.38,11.4c0.6,17.4,25.68,26.4,25.68,26.4c-4.08,11.88,2.64,19.92,2.64,19.92
		c-0.56,0.53-1.58,0.99-2.69,1.37c-2.13,0.73-4.39,1.09-6.64,1.03c-4.97-0.14-10.77,1.7-14.45,3.11c-2.38,0.91-4.6,2.2-6.62,3.76
		c-60.4,46.59-44.06,116.31-44.06,116.31c3.42,13.68,16.5,22.14,16.5,22.14c61.38,53.28,127.44,58.08,127.44,58.08
		c127.68,14.88,136.8-88.08,136.8-88.08c0.48-35.04,3.48-50.1,3.48-50.1C560.19,295.58,522.39,308.54,522.39,308.54z M415.78,198.78
		c0.59-3.7,8.88-5.45,18.51-3.91s16.95,5.79,16.36,9.49c-0.42,2.61-4.68,4.25-10.54,4.44c0.15,3.04-0.39,6.48-1.72,9.94
		c-3.35,8.67-10.35,14.05-15.64,12.01c-5.29-2.04-6.87-10.73-3.52-19.4c0.85-2.19,1.93-4.17,3.15-5.88
		C418.05,203.54,415.41,201.05,415.78,198.78z M365.93,253.66c-1.4,1.18-3.1,1.94-4.88,2.37c-12.68,3.07-22.1,1.82-26.32,0.9
		c-1.57-0.34-3.05-1.01-4.35-1.94c-15.1-10.84-12.69-22.17-4.72-25.02c4.97-1.78,5.59-4.08,5.3-5.64c-0.17-0.89-0.71-1.67-1.41-2.24
		c-7.14-5.93-8.93-8.23-8.93-8.23c-11.21-11.13-5.68-25.31-4.32-28.32c0.18-0.4,0.61-0.6,1.04-0.5c1.92,0.44,5,2.63,5,2.63
		c3.42,1.44,7.29,10.17,7.29,10.17c5.4,8.91,15.93,26.55,15.93,26.55c8.55,13.59,19.44,19.62,19.44,19.62
		C370.43,248.23,368.3,251.67,365.93,253.66z M532.83,357.86c-1.26,15.84-24.48,24.12-39.42,29.88c0,0,7.02,0.88,24.34-8.8
		c0.48-0.27,1.07-0.21,1.5,0.14c1.83,1.53,4.98,6.75-10.35,20.35c0,0-12.78,10.26-31.68,16.74c0,0,2.93,2.3,17.32-5.46
		c0.62-0.34,1.43-0.14,1.76,0.49c1.07,2.01,1.56,6.9-11.58,13.74c0,0-25.5,11.94-47.46,12.3c0,0-34.79,1.55-47.33-20.44
		c-2.05-3.59-2.96-7.71-2.72-11.84c0.31-5.36,1.82-13.88,7.21-24.24c0,0,7.56-14.76,27.36-13.14c0,0,65.16,5.4,99.36-16.2
		C521.13,351.38,534.09,342.02,532.83,357.86z"/>
	<path class="st0" d="M481.62,151.46c2.78,0,5.04-2.26,5.04-5.04c0-0.09-0.02-0.17-0.03-0.26c0-0.09,0.03-0.17,0.03-0.26
		c0-2.78-2.26-5.04-5.04-5.04s-5.04,2.26-5.04,5.04c0,0.09,0.02,0.17,0.03,0.26c0,0.09-0.03,0.17-0.03,0.26
		C476.58,149.2,478.83,151.46,481.62,151.46z"/>
	<path class="st0" d="M492.22,139.4c3.41,0.52,6.3-2.37,5.78-5.78c-0.33-2.12-2.06-3.86-4.18-4.18c-3.41-0.52-6.3,2.37-5.78,5.78
		C488.36,137.34,490.1,139.07,492.22,139.4z"/>
	<circle class="st0" cx="508.62" cy="125.54" r="5.04"/>
	<path class="st0" d="M519.69,127.91l33.84-1.71l4.14-7.26c-1.71-16.62-11.94-22.32-11.94-22.32L517.47,113l-3.06,5.94
		C518.94,123.2,519.69,127.91,519.69,127.91z M543,108.11c0,0,3.24,3.87,4.23,7.83c0,0-5.67,0.81-6.66,1.26c0,0-0.36-3.69-2.52-6.84
		L543,108.11z"/>
</g>
</svg>
