<?xml version="1.0" encoding="utf-8"?>
<!-- Generator: Adobe Illustrator 26.3.0, SVG Export Plug-In . SVG Version: 6.00 Build 0)  -->
<svg version="1.1" id="Camada_1" xmlns="http://www.w3.org/2000/svg" xmlns:xlink="http://www.w3.org/1999/xlink" x="0px" y="0px"
	 viewBox="0 0 490 80" style="enable-background:new 0 0 490 80;" xml:space="preserve">
<style type="text/css">
	.st0{fill:#E01042;}
	.st1{fill:#FFFFFF;}
</style>
<path class="st0" d="M451.51,74.74H41.94c-19.23,0-34.82-15.59-34.82-34.82v0C7.12,20.69,22.71,5.1,41.94,5.1h409.57
	c19.23,0,34.82,15.59,34.82,34.82v0C486.33,59.15,470.74,74.74,451.51,74.74z"/>
<g>
	<path class="st1" d="M38.89,40.69c0-10.26,8.3-18.16,19.11-18.16c4.48,0.06,9.27,2.02,12.82,5.25l-5.29,6.8
		c-2.13-1.94-4.95-3.21-7.51-3.21c-5.34,0-9.79,4.07-9.79,9.38c0,5.38,4.65,9.34,9.6,9.34c2.9,0,5.51-1.38,7.75-3.38l5.25,6.99
		c-3.31,3.01-7.72,5.1-13,5.1C48.03,58.81,38.89,51.58,38.89,40.69z"/>
	<path class="st1" d="M71.75,40.73c0-10.41,8.26-18.31,19.04-18.31c10.78,0,19.04,7.9,19.04,18.31c0,10.33-8.26,18.18-19.06,18.18
		C79.99,58.92,71.75,51.06,71.75,40.73z M100.51,40.67c0-5.36-4.22-9.49-9.72-9.49s-9.73,4.13-9.73,9.49c0,5.34,4.22,9.44,9.73,9.44
		S100.51,46.01,100.51,40.67z"/>
	<path class="st1" d="M151.54,23.03v35.01h-9.21V44.29l-9.34,13.17h-0.06l-9.36-13.17v13.75h-9.21V23.03h3.7l14.89,20.4l14.89-20.4
		H151.54z"/>
	<path class="st1" d="M157.57,23.35h13.1c7.14,0,13.1,5.38,13.1,12.16c0,6.69-5.83,12.31-13.1,12.31h-3.89v10.22h-9.21V23.35z
		 M174.89,35.55c0-2.11-1.76-3.7-4.22-3.7h-3.89v7.47l3.89,0.02C173.15,39.36,174.89,37.68,174.89,35.55z"/>
	<path class="st1" d="M206.22,58.03l-9.27-15.06v15.06h-9.21l-0.04-34.68h13.17c7.49,0,12.84,5.06,12.84,11.27
		c0,4.32-2.6,7.94-6,9.49L217,58.03H206.22z M196.91,38.58l3.77,0.02c1.96,0.02,3.74-1.36,3.74-3.49c0-2.15-1.81-3.49-3.74-3.49
		h-3.77V38.58z"/>
	<path class="st1" d="M229.43,31.91v4.84h11.02v7.68h-11.02v4.97h13.38v8.63h-22.48V23.35h22.48v8.56H229.43z"/>
	<path class="st1" d="M283.61,53.99h-12.95l-1.76,4.04h-10.07l16.11-35.11h4.37l16.14,35.11h-10.09L283.61,53.99z M280.69,47.25
		l-3.55-8.22l-3.57,8.22H280.69z"/>
	<path class="st1" d="M331.34,41.49c0,10.54-7.96,17.36-17.81,17.36c-11.02,0-19.34-8.22-19.34-18.12s8.35-18.22,19.11-18.22
		c4.41,0.06,9.51,1.94,12.37,4.58l-5.1,6.99c-1.94-1.81-4.71-2.97-7.27-2.97c-5.16,0-9.7,4.24-9.7,9.6c0,4.86,3.89,9.6,10.31,9.6
		c4.2,0,7.19-2.02,7.31-5.34h-7.94v-6.86h17.79C331.23,39.27,331.34,40.39,331.34,41.49z"/>
	<path class="st1" d="M334.36,40.73c0-10.41,8.26-18.31,19.04-18.31c10.78,0,19.04,7.9,19.04,18.31c0,10.33-8.26,18.18-19.06,18.18
		C342.6,58.92,334.36,51.06,334.36,40.73z M363.13,40.67c0-5.36-4.22-9.49-9.72-9.49s-9.72,4.13-9.72,9.49
		c0,5.34,4.22,9.44,9.72,9.44S363.13,46.01,363.13,40.67z"/>
	<path class="st1" d="M395.5,58.03l-9.27-15.06v15.06h-9.21l-0.04-34.68h13.17c7.49,0,12.84,5.06,12.84,11.27
		c0,4.32-2.6,7.94-6,9.49l9.29,13.92H395.5z M386.18,38.58l3.76,0.02c1.96,0.02,3.74-1.36,3.74-3.49c0-2.15-1.81-3.49-3.74-3.49
		h-3.76V38.58z"/>
	<path class="st1" d="M431.82,53.99h-12.95l-1.76,4.04h-10.07l16.11-35.11h4.37l16.14,35.11h-10.09L431.82,53.99z M428.9,47.25
		l-3.55-8.22l-3.57,8.22H428.9z"/>
	<path class="st1" d="M447.33,23.35H458l-1.48,22.57h-7.64L447.33,23.35z M447.33,54.18c0-2.75,2.45-4.97,5.33-4.97
		c2.97,0,5.42,2.35,5.42,5.08c0,2.78-2.45,4.97-5.38,4.97C449.76,59.26,447.33,57,447.33,54.18z"/>
</g>
</svg>
